PathFileType	4	(X/Y/Z) shrug_0kg_1.trc																										
DataRate	CameraRate	NumFrames	NumMarkers	Units	OrigDataRate	OrigDataStartFrame	OrigNumFrames																					
100	100	19	9	mm	100	265	462																					
Frame#	Time	gu			centelbow			EpL			centpxt8			centijc7			ij			ts			aa			ai		
		X1	Y1	Z1	X2	Y2	Z2	X3	Y3	Z3	X4	Y4	Z4	X5	Y5	Z5	X6	Y6	Z6	X7	Y7	Z7	X8	Y8	Z8	X9	Y9	Z9
264	2.64	-78.98	-14.784	165.876	-107.531	-257.624	200.489	-84.759	-253.053	222.849	-46.816	-153.158	-8.669	-46.816	31.938	-8.669	0	0	0	-139.072	29.899	56.705	-105.451	24.986	171.031	-163.39	-80.704	64.541
265	2.65	-78.705	-14.373	166.265	-107.373	-257.23	200.661	-84.696	-252.665	223.119	-46.816	-153.158	-8.669	-46.816	31.938	-8.669	0	0	0	-138.96	29.919	56.488	-105.498	24.939	170.858	-163.147	-80.722	64.182
266	2.66	-78.541	-13.741	166.224	-107.154	-256.619	200.514	-84.51	-252.052	223.004	-46.816	-153.158	-8.669	-46.816	31.938	-8.669	0	0	0	-139.128	29.781	56.175	-105.791	24.75	170.579	-163.192	-80.895	63.754
267	2.67	-78.451	-13.527	165.947	-107.078	-256.414	200.168	-84.434	-251.854	222.659	-46.816	-153.158	-8.669	-46.816	31.938	-8.669	0	0	0	-139.433	29.542	55.815	-106.18	24.474	170.241	-163.401	-81.161	63.31
268	2.68	-78.378	-13.93	165.913	-107.21	-256.8	200.079	-84.558	-252.265	222.568	-46.816	-153.158	-8.669	-46.816	31.938	-8.669	0	0	0	-139.613	29.384	55.528	-106.416	24.29	169.969	-163.502	-81.34	62.961
269	2.69	-78.419	-14.443	166.258	-107.521	-257.287	200.377	-84.87	-252.78	222.873	-46.816	-153.158	-8.669	-46.816	31.938	-8.669	0	0	0	-139.649	29.293	55.487	-106.52	24.185	169.947	-163.477	-81.447	62.872
270	2.7	-78.495	-14.567	166.655	-107.769	-257.397	200.729	-85.124	-252.908	223.234	-46.816	-153.158	-8.669	-46.816	31.938	-8.669	0	0	0	-139.653	29.219	55.632	-106.605	24.106	170.115	-163.441	-81.531	62.982
271	2.71	-78.407	-14.436	166.807	-107.75	-257.263	200.837	-85.105	-252.785	223.344	-46.816	-153.158	-8.669	-46.816	31.938	-8.669	0	0	0	-139.578	29.197	55.783	-106.596	24.09	170.286	-163.331	-81.562	63.113
272	2.72	-78.229	-14.443	166.773	-107.641	-257.267	200.77	-84.989	-252.799	223.273	-46.816	-153.158	-8.669	-46.816	31.938	-8.669	0	0	0	-139.387	29.215	55.928	-106.451	24.126	170.445	-163.102	-81.553	63.255
273	2.73	-78.191	-14.591	166.762	-107.697	-257.406	200.742	-85.037	-252.95	223.239	-46.816	-153.158	-8.669	-46.816	31.938	-8.669	0	0	0	-139.267	29.251	56.119	-106.37	24.183	170.648	-162.948	-81.524	63.447
274	2.74	-78.287	-14.652	166.868	-107.873	-257.46	200.829	-85.208	-253.014	223.323	-46.816	-153.158	-8.669	-46.816	31.938	-8.669	0	0	0	-139.361	29.276	56.292	-106.498	24.209	170.831	-163.021	-81.504	63.606
275	2.75	-78.328	-14.687	167.033	-108.018	-257.485	200.979	-85.347	-253.051	223.47	-46.816	-153.158	-8.669	-46.816	31.938	-8.669	0	0	0	-139.572	29.195	56.316	-106.718	24.11	170.856	-163.237	-81.586	63.612
276	2.76	-78.227	-14.826	167.177	-108.088	-257.602	201.124	-85.409	-253.186	223.61	-46.816	-153.158	-8.669	-46.816	31.938	-8.669	0	0	0	-139.758	29.07	56.196	-106.882	23.969	170.729	-163.45	-81.705	63.49
277	2.77	-78.06	-14.867	167.262	-108.074	-257.623	201.216	-85.385	-253.222	223.694	-46.816	-153.158	-8.669	-46.816	31.938	-8.669	0	0	0	-139.823	29.135	56.098	-106.927	24.032	170.626	-163.534	-81.636	63.4
278	2.78	-77.901	-14.605	167.227	-107.946	-257.359	201.174	-85.246	-252.964	223.642	-46.816	-153.158	-8.669	-46.816	31.938	-8.669	0	0	0	-139.694	29.437	56.036	-106.798	24.336	170.563	-163.395	-81.335	63.337
279	2.79	-77.774	-14.221	167.005	-107.771	-256.982	200.942	-85.056	-252.588	223.395	-46.816	-153.158	-8.669	-46.816	31.938	-8.669	0	0	0	-139.428	29.765	55.831	-106.52	24.659	170.356	-163.104	-81.013	63.124
280	2.8	-77.748	-14.056	166.697	-107.751	-256.814	200.644	-85.016	-252.425	223.078	-46.816	-153.158	-8.669	-46.816	31.938	-8.669	0	0	0	-139.229	29.901	55.518	-106.291	24.791	170.033	-162.892	-80.88	62.809
281	2.81	-77.877	-14.24	166.538	-108.001	-256.981	200.508	-85.25	-252.604	222.928	-46.816	-153.158	-8.669	-46.816	31.938	-8.669	0	0	0	-139.247	29.827	55.384	-106.305	24.72	169.898	-162.925	-80.951	62.684
282	2.82	-78.098	-14.633	166.549	-108.373	-257.352	200.533	-85.614	-252.99	222.948	-46.816	-153.158	-8.669	-46.816	31.938	-8.669	0	0	0	-139.385	29.711	55.491	-106.488	24.608	170.019	-163.081	-81.063	62.789
